{
  "asset": {
    "version": "2.0",
    "generator": "THREE.GLTFExporter"
  },
  "scenes": [
    {
      "nodes": [
        0
      ]
    }
  ],
  "scene": 0,
  "nodes": [
    {
      "children": [
        14
      ],
      "matrix": [
        0.01,
        0,
        0,
        0,
        0,
        0.01,
        0,
        0,
        0,
        0,
        0.01,
        0,
        0,
        0,
        0,
        1
      ]
    },
    {
      "matrix": [
        0.19115600524798806,
        0.0217591437679916,
        -0.9813184607048392,
        0,
        0.11309888666252972,
        -0.9935837367004837,
        0,
        0,
        -0.9750220630802809,
        -0.11098602536710474,
        -0.19239043292192304,
        0,
        0,
        0,
        0,
        1
      ],
      "name": "Directional Light 2",
      "extensions": {
        "KHR_lights_punctual": {
          "light": 0
        }
      }
    },
    {
      "matrix": [
        0.14158302520833094,
        -1.4875999382150718e-8,
        -0.9899263846230474,
        0,
        -0.057503708728916005,
        0.9983114155940875,
        -0.008224413471430925,
        0,
        0.9882548104893181,
        0.058088875824282085,
        0.141343949464397,
        0,
        1221.8968433486057,
        4.524697240129244,
        -213.4635261023775,
        0.9999999999999998
      ],
      "name": "Camera 3",
      "camera": 0
    },
    {
      "matrix": [
        -0.270286564636649,
        -1.3744964638684465e-8,
        -0.9627799192842144,
        0,
        0.37183968866478256,
        0.9224089430045637,
        -0.10438863826528852,
        0,
        0.8880768091277893,
        -0.3862146318631694,
        -0.24931473928390258,
        0,
        1109.1886526976982,
        -420.26203745229793,
        -580.4194864014468,
        1
      ],
      "name": "Camera 2",
      "camera": 1
    },
    {
      "matrix": [
        1.3326180005437898e-17,
        0.03489949670250164,
        -0.9993908270190958,
        0,
        1.0000000000000007,
        8.68573593917816e-17,
        2.34657977356763e-16,
        0,
        -1.844274753089448e-16,
        -0.9993908270190959,
        -0.03489949670250142,
        0,
        192.31092194233733,
        -1.0630057851630175,
        30.440502905133624,
        1.0000000000000002
      ],
      "name": "Cube 2",
      "mesh": 0
    },
    {
      "mesh": 0
    },
    {
      "matrix": [
        1,
        0,
        0,
        0,
        0,
        0.85,
        0,
        0,
        0,
        0,
        1,
        0,
        96,
        25,
        -100,
        1
      ],
      "mesh": 0
    },
    {
      "matrix": [
        1,
        0,
        0,
        0,
        0,
        0.7,
        0,
        0,
        0,
        0,
        1,
        0,
        192,
        50,
        -200,
        1
      ],
      "mesh": 0
    },
    {
      "matrix": [
        1,
        0,
        0,
        0,
        0,
        0.5499999999999999,
        0,
        0,
        0,
        0,
        1,
        0,
        288,
        75,
        -300,
        1
      ],
      "mesh": 0
    },
    {
      "matrix": [
        1.3326180005437898e-17,
        0.03489949670250164,
        -0.9993908270190958,
        0,
        1.0000000000000007,
        8.68573593917816e-17,
        2.34657977356763e-16,
        0,
        -1.844274753089448e-16,
        -0.9993908270190959,
        -0.03489949670250142,
        0,
        192.31092194233733,
        -1.0630057851630175,
        30.440502905133624,
        1.0000000000000002
      ],
      "children": [
        5,
        6,
        7,
        8
      ]
    },
    {
      "matrix": [
        0.977081240356831,
        0.002311893296193292,
        0.21285418692650512,
        0,
        -0.0013941185514070357,
        0.9999890745759691,
        -0.004461744295842058,
        0,
        -0.21286217648098305,
        0.004062742679997473,
        0.9770737883833006,
        0,
        91.99772455205043,
        -205.22593975290476,
        -294.9269161806314,
        1
      ],
      "name": "Group",
      "children": [
        4,
        9
      ]
    },
    {
      "matrix": [
        0.026319786823691137,
        0.2501313600733782,
        -0.9678541065312465,
        0,
        -0.9945095211562526,
        0.10464612907108077,
        0,
        0,
        0.10128218575404438,
        0.9625401240355026,
        0.2515122829418129,
        0,
        0,
        0,
        0,
        1
      ],
      "name": "Directional Light",
      "extensions": {
        "KHR_lights_punctual": {
          "light": 1
        }
      }
    },
    {
      "matrix": [
        -0.5485987167950341,
        -0.8351304326205511,
        0.039957583033177646,
        0,
        0.2643148898626515,
        -0.2185726248688744,
        -0.9393421350364439,
        0,
        0.7932068374186751,
        -0.5047605057539086,
        0.3406460698486362,
        0,
        892.7938524579744,
        -515.4656287975438,
        -78.71779628454681,
        1
      ],
      "camera": 2
    },
    {
      "matrix": [
        1,
        0,
        0,
        0,
        0,
        1,
        0,
        0,
        0,
        0,
        1,
        0,
        0,
        1,
        0,
        1
      ],
      "name": "Default Ambient Light"
    },
    {
      "name": "Scene 3",
      "children": [
        1,
        2,
        3,
        10,
        11,
        12,
        13
      ]
    }
  ],
  "extensions": {
    "KHR_lights_punctual": {
      "lights": [
        {
          "name": "Directional Light 2",
          "color": [
            1,
            1,
            1
          ],
          "intensity": 1.434,
          "type": "directional"
        },
        {
          "name": "Directional Light",
          "color": [
            1,
            1,
            1
          ],
          "intensity": 2.339,
          "type": "directional"
        }
      ]
    }
  },
  "cameras": [
    {
      "type": "orthographic",
      "orthographic": {
        "xmag": 3.1040512420703466,
        "ymag": 2.2530584035137475,
        "zfar": 100000,
        "znear": 0
      },
      "name": "Camera"
    },
    {
      "type": "orthographic",
      "orthographic": {
        "xmag": 4.678859883828125,
        "ymag": 3.3961245346875,
        "zfar": 100000,
        "znear": 0
      },
      "name": "Camera"
    },
    {
      "type": "orthographic",
      "orthographic": {
        "xmag": 2.801406245968488,
        "ymag": 2.0333852091711573,
        "zfar": 100000,
        "znear": 0
      }
    }
  ],
  "bufferViews": [
    {
      "buffer": 0,
      "byteOffset": 0,
      "byteLength": 7200,
      "target": 34962,
      "byteStride": 12
    },
    {
      "buffer": 0,
      "byteOffset": 7200,
      "byteLength": 7200,
      "target": 34962,
      "byteStride": 12
    },
    {
      "buffer": 0,
      "byteOffset": 14400,
      "byteLength": 4800,
      "target": 34962,
      "byteStride": 8
    },
    {
      "buffer": 0,
      "byteOffset": 19200,
      "byteLength": 4296,
      "target": 34963
    }
  ],
  "buffers": [
    {
      "byteLength": 23496,
      "uri": "data:application/octet-stream;base64,"
    }
  ],
  "accessors": [
    {
      "bufferView": 0,
      "componentType": 5126,
      "count": 600,
      "max": [
        50,
        394.7080993652344,
        50
      ],
      "min": [
        -50,
        -394.7080993652344,
        -50
      ],
      "type": "VEC3"
    },
    {
      "bufferView": 1,
      "componentType": 5126,
      "count": 600,
      "max": [
        1,
        1,
        1
      ],
      "min": [
        -1,
        -1,
        -1
      ],
      "type": "VEC3"
    },
    {
      "bufferView": 2,
      "componentType": 5126,
      "count": 600,
      "max": [
        1,
        1
      ],
      "min": [
        0,
        0
      ],
      "type": "VEC2"
    },
    {
      "bufferView": 3,
      "componentType": 5123,
      "count": 2148,
      "max": [
        599
      ],
      "min": [
        0
      ],
      "type": "SCALAR"
    }
  ],
  "meshes": [
    {
      "primitives": [
        {
          "mode": 4,
          "attributes": {
            "POSITION": 0,
            "NORMAL": 1,
            "TEXCOORD_0": 2
          },
          "extras": {
            "parameters": {
              "width": 100,
              "widthSegments": 1,
              "heightSegments": 1,
              "depthSegments": 1,
              "cornerRadius": 3,
              "cornerSegments": 8,
              "height": 789.4162035495102,
              "depth": 100,
              "type": "CubeGeometry"
            },
            "type": "CubeGeometry"
          },
          "indices": 3
        }
      ]
    }
  ],
  "extensionsUsed": [
    "KHR_lights_punctual"
  ]
}