{
  "asset": {
    "version": "2.0",
    "generator": "THREE.GLTFExporter"
  },
  "scenes": [
    {
      "nodes": [
        0
      ]
    }
  ],
  "scene": 0,
  "nodes": [
    {
      "children": [
        7
      ],
      "matrix": [
        0.01,
        0,
        0,
        0,
        0,
        0.01,
        0,
        0,
        0,
        0,
        0.01,
        0,
        0,
        0,
        0,
        1
      ]
    },
    {
      "matrix": [
        0.9280068718721213,
        1.9519333274709005e-8,
        -0.37256307621410895,
        0,
        -0.14041944091139869,
        0.9262535178090209,
        -0.3497667813851739,
        0,
        0.34508785312185436,
        0.37690107554425134,
        0.8595696323633915,
        0,
        1612.5541359231252,
        1822.2284315013842,
        3981.8100635894743,
        1
      ],
      "name": "Camera",
      "camera": 0
    },
    {
      "matrix": [
        -0.568129871164351,
        0.812645566400021,
        -0.1297521980590957,
        0,
        -0.8159414081995975,
        -0.5767707765816508,
        -0.03968739934358409,
        0,
        -0.10708906515623154,
        0.08332259412541304,
        0.9907518748062888,
        0,
        78.46368899431118,
        115.82133733889728,
        88.50624190925757,
        1
      ],
      "name": "Pyramid 2",
      "mesh": 0
    },
    {
      "matrix": [
        0.5255372344259613,
        -0.8453380956941432,
        0.09599020366741376,
        0,
        0.6963813815116955,
        0.49223648628044947,
        0.5222606753893491,
        0,
        -0.488736725360162,
        -0.20762164035205055,
        0.8473663126073335,
        0,
        -20.231791761105907,
        31.980843431916398,
        -6.965830524321254,
        1
      ],
      "name": "Pyramid",
      "mesh": 1
    },
    {
      "matrix": [
        0.6536184071225554,
        0.4571243666708565,
        -0.6031751746104458,
        0,
        -0.5731185496993477,
        0.8194724693304323,
        0,
        0,
        0.49428544977683664,
        0.3456908812873895,
        0.7976087441431784,
        0,
        0,
        0,
        0,
        1
      ],
      "name": "Directional Light",
      "extensions": {
        "KHR_lights_punctual": {
          "light": 0
        }
      }
    },
    {
      "matrix": [
        0.9280792157769997,
        1.3877787807814457e-17,
        -0.3723828261920106,
        0,
        -0.1527831350322919,
        0.9119572987771424,
        -0.38077709865064413,
        0,
        0.3395972362850641,
        0.4102851267193315,
        0.8463686146712013,
        0,
        333.8571218307683,
        438.6084369091078,
        844.3073158556067,
        1
      ],
      "camera": 1
    },
    {
      "matrix": [
        1,
        0,
        0,
        0,
        0,
        1,
        0,
        0,
        0,
        0,
        1,
        0,
        0,
        1,
        0,
        1
      ],
      "name": "Default Ambient Light"
    },
    {
      "name": "Scene 3",
      "children": [
        1,
        2,
        3,
        4,
        5,
        6
      ]
    }
  ],
  "cameras": [
    {
      "type": "perspective",
      "perspective": {
        "aspectRatio": 1.3777056277056277,
        "yfov": 0.017453292519943295,
        "zfar": 100000,
        "znear": 70
      },
      "name": "Camera"
    },
    {
      "type": "orthographic",
      "orthographic": {
        "xmag": 0.8179798765368822,
        "ymag": 0.5937261633307771,
        "zfar": 100000,
        "znear": 0
      }
    }
  ],
  "bufferViews": [
    {
      "buffer": 0,
      "byteOffset": 0,
      "byteLength": 5820,
      "target": 34962,
      "byteStride": 12
    },
    {
      "buffer": 0,
      "byteOffset": 5820,
      "byteLength": 5820,
      "target": 34962,
      "byteStride": 12
    },
    {
      "buffer": 0,
      "byteOffset": 11640,
      "byteLength": 3880,
      "target": 34962,
      "byteStride": 8
    },
    {
      "buffer": 0,
      "byteOffset": 15520,
      "byteLength": 3888,
      "target": 34963
    },
    {
      "buffer": 0,
      "byteOffset": 19408,
      "byteLength": 5820,
      "target": 34962,
      "byteStride": 12
    },
    {
      "buffer": 0,
      "byteOffset": 25228,
      "byteLength": 5820,
      "target": 34962,
      "byteStride": 12
    },
    {
      "buffer": 0,
      "byteOffset": 31048,
      "byteLength": 3880,
      "target": 34962,
      "byteStride": 8
    },
    {
      "buffer": 0,
      "byteOffset": 34928,
      "byteLength": 3888,
      "target": 34963
    }
  ],
  "buffers": [
    {
      "byteLength": 38816,
      "uri": "data:application/octet-stream;base64,"
    }
  ],
  "accessors": [
    {
      "bufferView": 0,
      "componentType": 5126,
      "count": 485,
      "max": [
        42.7957878112793,
        39.448665618896484,
        34.66898727416992
      ],
      "min": [
        -42.7957878112793,
        -40.00226974487305,
        -34.66898727416992
      ],
      "type": "VEC3"
    },
    {
      "bufferView": 1,
      "componentType": 5126,
      "count": 485,
      "max": [
        0.9997612833976746,
        1,
        0.9998433589935303
      ],
      "min": [
        -0.9997612833976746,
        -1,
        -0.9998433589935303
      ],
      "type": "VEC3"
    },
    {
      "bufferView": 2,
      "componentType": 5126,
      "count": 485,
      "max": [
        0,
        0
      ],
      "min": [
        0,
        0
      ],
      "type": "VEC2"
    },
    {
      "bufferView": 3,
      "componentType": 5123,
      "count": 1944,
      "max": [
        484
      ],
      "min": [
        0
      ],
      "type": "SCALAR"
    },
    {
      "bufferView": 4,
      "componentType": 5126,
      "count": 485,
      "max": [
        35.17798614501953,
        49.001224517822266,
        21.070295333862305
      ],
      "min": [
        -35.17798614501953,
        -50,
        -21.070295333862305
      ],
      "type": "VEC3"
    },
    {
      "bufferView": 5,
      "componentType": 5126,
      "count": 485,
      "max": [
        0.9948775172233582,
        1,
        0.9981532096862793
      ],
      "min": [
        -0.9948775172233582,
        -1,
        -0.9981532096862793
      ],
      "type": "VEC3"
    },
    {
      "bufferView": 6,
      "componentType": 5126,
      "count": 485,
      "max": [
        0,
        0
      ],
      "min": [
        0,
        0
      ],
      "type": "VEC2"
    },
    {
      "bufferView": 7,
      "componentType": 5123,
      "count": 1944,
      "max": [
        484
      ],
      "min": [
        0
      ],
      "type": "SCALAR"
    }
  ],
  "meshes": [
    {
      "primitives": [
        {
          "mode": 4,
          "attributes": {
            "POSITION": 0,
            "NORMAL": 1,
            "TEXCOORD_0": 2
          },
          "extras": {
            "parameters": {
              "width": 122,
              "radialSegments": 4,
              "heightSegments": 1,
              "cornerRadius": 0.5,
              "cornerSegments": 8,
              "openEnded": false,
              "depth": 98.83253629855689,
              "height": 80.00453763853643,
              "type": "PyramidGeometry"
            },
            "type": "PyramidGeometry"
          },
          "indices": 3
        }
      ]
    },
    {
      "primitives": [
        {
          "mode": 4,
          "attributes": {
            "POSITION": 4,
            "NORMAL": 5,
            "TEXCOORD_0": 6
          },
          "extras": {
            "parameters": {
              "width": 100.0920102080424,
              "radialSegments": 4,
              "heightSegments": 1,
              "cornerRadius": 0.5,
              "cornerSegments": 8,
              "openEnded": false,
              "depth": 59.95136413790339,
              "height": 100,
              "type": "PyramidGeometry"
            },
            "type": "PyramidGeometry"
          },
          "indices": 7
        }
      ]
    }
  ],
  "extensions": {
    "KHR_lights_punctual": {
      "lights": [
        {
          "name": "Directional Light",
          "color": [
            1,
            1,
            1
          ],
          "intensity": 4.307,
          "type": "directional"
        }
      ]
    }
  },
  "extensionsUsed": [
    "KHR_lights_punctual"
  ]
}